<svg width="512" height="512" viewBox="0 0 512 512" xmlns="http://www.w3.org/2000/svg"><defs><pattern id="satori_pattern_id_2" x="0" y="0" width="1" height="1" patternUnits="objectBoundingBox"><radialGradient id="satori_radial_id_2" spreadMethod="pad"><stop offset="0" stop-color="rgba(255, 205, 27, 0.25)"/><stop offset="1" stop-color="transparent"/></radialGradient><mask id="satori_mask_id_2"><rect x="0" y="0" width="512" height="512" fill="#fff"/></mask><rect x="0" y="0" width="512" height="512" fill="transparent"/><circle cx="471.04" cy="486.4" width="512" height="512" r="280" fill="url(#satori_radial_id_2)" mask="url(#satori_mask_id_2)"/></pattern><pattern id="satori_pattern_id_1" x="0" y="0" width="1" height="1" patternUnits="objectBoundingBox"><radialGradient id="satori_radial_id_1" spreadMethod="pad"><stop offset="0" stop-color="rgba(0, 56, 255, 0.15)"/><stop offset="1" stop-color="transparent"/></radialGradient><mask id="satori_mask_id_1"><rect x="0" y="0" width="512" height="512" fill="#fff"/></mask><rect x="0" y="0" width="512" height="512" fill="transparent"/><circle cx="25.6" cy="40.96" width="512" height="512" r="260" fill="url(#satori_radial_id_1)" mask="url(#satori_mask_id_1)"/></pattern><pattern id="satori_pattern_id_0" x="0" y="0" width="1" height="1" patternUnits="objectBoundingBox"><radialGradient id="satori_radial_id_0" spreadMethod="pad"><stop offset="0" stop-color="rgba(255, 0, 153, 0.18)"/><stop offset="1" stop-color="transparent"/></radialGradient><mask id="satori_mask_id_0"><rect x="0" y="0" width="512" height="512" fill="#fff"/></mask><rect x="0" y="0" width="512" height="512" fill="transparent"/><circle cx="384" cy="0" width="512" height="512" r="280" fill="url(#satori_radial_id_0)" mask="url(#satori_mask_id_0)"/></pattern></defs><mask id="satori_om-id"><rect x="0" y="0" width="512" height="512" fill="#fff"/></mask><rect x="0" y="0" width="512" height="512" fill="#ffffff"/><rect x="0" y="0" width="512" height="512" fill="url(#satori_pattern_id_2)"/><rect x="0" y="0" width="512" height="512" fill="url(#satori_pattern_id_1)"/><rect x="0" y="0" width="512" height="512" fill="url(#satori_pattern_id_0)"/><mask id="satori_om-id-0"><rect x="110" y="48" width="230" height="380" fill="#fff"/></mask><g  ><path fill="#212b36" d="M195.1 404L140.0 404L140.0 100.8L195.1 100.8L195.1 282.4L196.6 282.4L269.2 191.2L330.4 191.2L257.4 279.0L337.2 404L276.4 404L224.8 315.5L195.1 350.0L195.1 404Z "/></g><mask id="satori_om-id-1"><rect x="336" y="318" width="96" height="96" fill="#fff"/></mask><path x="336" y="318" width="96" height="96" fill="#748ffc" d="M384,318 h0 a48,48 0 0 1 48,48 v0 a48,48 0 0 1 -48,48 h0 a48,48 0 0 1 -48,-48 v0 a48,48 0 0 1 48,-48"/></svg>